<?xml version="1.0" standalone="no"?>
<!DOCTYPE svg PUBLIC "-//W3C//DTD SVG 1.1//EN" "http://www.w3.org/Graphics/SVG/1.1/DTD/svg11.dtd">
<svg xmlns="http://www.w3.org/2000/svg">
<metadata>Generated by Fontastic.me</metadata>
<defs>
<font id="check-ahead-font" horiz-adv-x="512">
<font-face font-family="check-ahead-font" units-per-em="512" ascent="480" descent="-32"/>
<missing-glyph horiz-adv-x="512" />

<glyph glyph-name="makeup" unicode="&#97;" d="M452 452c-40 40-93 61-149 60-25-1-45-18-50-41l-33-161-206-207c-18-17-18-46 0-64l25-26c9-8 20-13 32-13 12 0 24 5 33 13l202 203c0 0 0 0 1 0l164 37c24 5 40 25 41 49l0 1c1 56-20 109-60 149z m-363-424c-4-5-11-8-18-8-7 0-13 3-18 8l-7 7 38 37c4 4 4 10 0 14-4 4-11 4-14 0l-38-37-4 4c-10 10-10 26 0 36l109 110 62-62z m124 123l-62 62 76 76 62-62z m279 152l0 0c0-15-11-28-25-31l-159-36-9 9 69 29c5 2 7 8 5 13-2 5-8 8-13 5l-76-32-5 5 39 38c3 4 3 10 0 14-4 4-11 4-15 0l-38-38-5 5 33 75c2 5 0 11-5 14-5 2-11-1-13-6l-30-68-6 6 34 162c3 14 15 25 30 25 51 1 99-18 135-54 36-36 55-84 54-135z m-148 41c-2 2-4 3-7 3-3 0-5-1-7-3-2-2-3-5-3-7 0-3 1-5 3-7 2-2 4-3 7-3 3 0 5 1 7 3 2 2 3 4 3 7 0 2-1 5-3 7z m-234-232c-2 2-5 3-7 3-3 0-6-1-8-3-1-2-2-4-2-7 0-2 1-5 2-7 2-2 5-3 8-3 2 0 5 1 7 3 1 2 3 5 3 7 0 3-2 5-3 7z"/>
<glyph glyph-name="cancel" unicode="&#98;" d="M256 512c-141 0-256-115-256-256 0-141 115-256 256-256 141 0 256 115 256 256 0 141-115 256-256 256z m0-495c-132 0-239 107-239 239 0 132 107 239 239 239 132 0 239-107 239-239 0-132-107-239-239-239z m117 356c-3 3-9 3-12 0l-105-105-105 105c-3 3-9 3-12 0-3-3-3-8 0-12 0 0 0 0 0 0l105-105-105-105c-3-3-3-9 0-12 3-3 8-3 12 0 0 0 0 0 0 0l105 105 105-105c3-3 9-3 12 0 3 4 3 9 0 12l-105 105 105 105c3 3 3 9 0 12z"/>
<glyph glyph-name="cancel-1" unicode="&#99;" d="M284 256l222 222c8 8 8 20 0 28-8 8-20 8-28 0l-222-222-222 222c-8 8-20 8-28 0-8-8-8-20 0-28l222-222-222-222c-8-8-8-20 0-28 4-4 9-6 14-6 5 0 10 2 14 6l222 222 222-222c4-4 9-6 14-6 5 0 10 2 14 6 8 8 8 20 0 28z"/>
<glyph glyph-name="check" unicode="&#100;" d="M256 512c-141 0-256-115-256-256 0-141 115-256 256-256 141 0 256 115 256 256 0 141-115 256-256 256z m0-495c-132 0-239 107-239 239 0 132 107 239 239 239 132 0 239-107 239-239 0-132-107-239-239-239z m126 332l-167-168-85 85c-4 3-9 3-12 0-3-3-3-9 0-12l91-91c3-3 8-3 12 0l173 174c3 3 3 8 0 12-3 3-9 3-12 0z"/>
<glyph glyph-name="copyright" unicode="&#101;" d="M256 0c-141 0-256 115-256 256 0 141 115 256 256 256 141 0 256-115 256-256 0-141-115-256-256-256z m0 480c-124 0-224-100-224-224 0-124 100-224 224-224 124 0 224 100 224 224 0 124-100 224-224 224z m0-352c-71 0-128 57-128 128 0 71 57 128 128 128 35 0 67-14 91-38l-22-23c-19 19-43 29-69 29-53 0-96-43-96-96 0-53 43-96 96-96 26 0 50 10 69 29l22-23c-24-24-56-38-91-38z"/>
<glyph glyph-name="dyes" unicode="&#102;" d="M256 60c-6 0-10-4-10-10 0-6 4-10 10-10 6 0 10 4 10 10 0 6-4 10-10 10z m100 245c-3 4-6 8-10 12l0 45c0 17-13 30-30 30l-22 0-28 112c-1 5-5 8-10 8-5 0-9-3-10-8l-28-112-22 0c-17 0-30-13-30-30l0-45c-4-4-7-8-10-12-12-14-20-23-20-51l0-204c0-28 22-50 50-50l140 0c28 0 50 22 50 50l0 204c0 28-8 37-20 51z m-50 67l10 0c6 0 10-4 10-10l0-38-20 0z m-50 89l17-69-34 0z m30-89l0-48-20 0 0 48z m-60 0l20 0 0-48-20 0z m-40-10c0 6 4 10 10 10l10 0 0-48-20 0z m140-342l-140 0c-13 0-24 8-28 20l58 0c6 0 10 4 10 10 0 6-4 10-10 10l-60 0 0 194c0 21 4 25 15 38 3 3 6 7 10 12l150 0c4-5 7-9 10-12 11-13 15-17 15-38l0-194-60 0c-6 0-10-4-10-10 0-6 4-10 10-10l58 0c-4-12-15-20-28-20z m10 74l0 160c0 6-4 10-10 10l-140 0c-6 0-10-4-10-10l0-160c0-6 4-10 10-10l140 0c6 0 10 4 10 10z m-20 10l-120 0 0 140 120 0z m-90 20l60 0c6 0 10 4 10 10 0 6-4 10-10 10l-60 0c-6 0-10-4-10-10 0-6 4-10 10-10z m0 40c6 0 10 4 10 10 0 6-4 10-10 10-6 0-10-4-10-10 0-6 4-10 10-10z m30 10c0-6 4-10 10-10l20 0c6 0 10 4 10 10 0 6-4 10-10 10l-20 0c-6 0-10-4-10-10z m-15 30l30 0c6 0 10 4 10 10 0 6-4 10-10 10l-30 0c-6 0-10-4-10-10 0-6 4-10 10-10z"/>
<glyph glyph-name="gloves-1" unicode="&#103;" d="M256 512c-141 0-256-115-256-256 0-141 115-256 256-256 141 0 256 115 256 256 0 141-115 256-256 256z m0-51c28 0 49-23 46-51l-20-205-52 0-20 205c-3 28 18 51 46 51z m0-410c-28 0-51 23-51 51 0 29 23 52 51 52 28 0 51-23 51-52 0-28-23-51-51-51z"/>
<glyph glyph-name="natural" unicode="&#104;" d="M480 411c-6 0-13-1-19-5l0 38c0 15-10 28-24 32-9 3-19 2-27-3l0 5c0 8-3 16-8 22-7 8-16 12-26 12-19 0-35-15-35-34l0-5c-10 6-22 6-33 1-10-6-17-16-18-28-6 6-16 9-25 8-9 0-17-5-23-12l-14 35c-5 14-19 22-34 21-3 0-6 0-10-2-5-2-10-5-14-10l-2 4c-2 8-8 14-15 18-9 5-19 5-29 2-17-7-26-27-19-44l1-5c-12 2-24-2-32-12-7-9-9-22-5-34l58-151c4-9 6-19 7-29 0-3-1-6-3-8-3-1-6-2-8-1-9 4-17 8-24 14l-1 0c-28 20-56 40-76 32-12-4-21-16-22-29 0-11 7-21 18-25 16-7 45-38 70-66 6-6 12-13 17-19 21-22 54-39 78-49 11-5 19-13 23-24l1-2c-17-8-19-18-19-24 0-22 38-34 77-34 17 0 33 2 50 8 22-6 46-8 69-8 53 0 111 12 111 38 0 6-3 15-17 22l0 26c0 2 1 4 2 6 32 29 32 77 32 79l0 204c0 19-13 34-32 36z m-215-394c-39 0-60 12-60 17 0 2 3 6 14 10 1 0 3 1 4 1 3 2 5 7 3 10 0 0 0 1 0 1 0 0 0 0 0 0 0 0 0 0 0 1-1 1-2 3-2 5l-2 4c-6 15-17 27-32 33-19 8-53 25-72 46-6 6-12 12-18 19-28 31-55 61-75 70-5 2-8 5-8 9 1 6 5 11 11 13 12 4 40-15 60-30l1 0c8-6 17-11 27-15l0 0 0 0c18-7 36-8 55-5 3 1 5 3 6 6 1 3 1 6-1 8-2 3-5 4-8 3-7-1-13-1-20-1 2 4 3 9 3 14-1 11-3 23-8 34l-58 151c-2 5-1 9 0 14 2 4 6 7 10 9 4 1 9 1 13-1 4-2 7-5 9-9l0 0 0 0 29-70c1-4 4-6 8-6 1 0 2 1 3 1 4 2 6 7 4 11l-28 70-12 32c-4 8 1 18 9 22 5 2 10 1 15-1 3-2 6-5 7-9l13-32 0 0 40-105c2-5 7-7 11-5 5 2 7 7 5 11l-40 105 0 0 0 0c-2 5-2 9 0 13 2 5 5 8 10 9 1 1 3 1 4 1 8 1 15-3 17-10l24-63 0 0 20-51c2-4 5-6 8-6 1 0 2 0 3 1 5 1 7 6 5 11l-20 51 0 1c-1 4-1 8 1 12 2 5 6 8 10 10 10 2 19-3 22-12l4-12c1 0 1-1 1-1l0-130c1-10-1-21-4-30-1-3-3-5-6-6-3-1-6 0-8 2-6 6-12 14-17 21-20 29-47 64-69 64-13 0-25-7-31-19-3-11 0-23 8-30 15-15 41-69 60-117 11-28 36-56 55-74 8-8 12-19 12-30l0-3c-11-6-17-13-17-22 1-8 6-16 14-19-8-1-15-2-22-2z m230 154c0-1 0-43-26-67-5-4-8-11-8-18l0-26c0-1 0-2-1-2-1-5 1-9 5-11 11-4 13-8 13-9 0-6-33-21-94-21-61 0-94 15-94 21 0 1 2 5 13 9 4 2 6 7 5 11-1 1-1 1-1 2l0 3c0 16-6 31-18 42-14 14-40 42-51 69-6 16-40 100-63 122-4 4-5 8-4 11 3 6 9 9 15 9 8 0 29-18 54-56 6-9 13-17 21-24 6-6 15-9 23-6 9 2 16 8 18 16 4 12 6 24 5 36l0 162c0 6 4 11 9 15 5 3 12 3 17 0 5-3 8-9 8-15l0-145c0-5 4-9 9-9 5 0 8 4 8 9l0 179c0 9 8 17 18 17 5 0 9-2 13-6 2-3 4-7 4-11l0-34c0 0 0 0 0 0l0-145c0-5 3-9 8-9 5 0 9 4 9 9l0 145c0 9 8 16 17 16 9 0 16-7 17-16l0-154c0-5 4-8 8-8 5 0 9 3 9 8l0 87c0 4 2 9 5 12 3 4 8 5 13 5 9-1 16-9 16-19z m-26 76c-5 0-8-3-8-8l0-51c0-5 3-9 8-9 5 0 9 4 9 9l0 51c0 5-4 8-9 8z m0-85c-4 0-8-4-8-8-1-5-3-9-6-11-3-3-3-6-3-9 1-3 4-5 6-6 3 0 7 0 9 3 6 6 10 14 11 23 0 4-4 8-9 8z m-55-103c-30-15-69 0-70 0-4 2-9 0-11-5-1-4 1-9 5-11 15-5 30-8 45-8 13 0 27 3 39 9 4 2 6 7 4 11-2 4-7 6-12 4z"/>
<glyph glyph-name="group" unicode="&#105;" d="M477 285l-454 0c-12 0-22-9-22-21 0-11 10-21 22-21l454 0c12 0 22 10 22 21 0 12-10 21-22 21z"/>
<glyph glyph-name="magnifying-glass" unicode="&#106;" d="M354 208c62 87 41 207-46 269-86 61-207 40-268-46-61-87-41-207 46-269 62-44 144-47 209-8l142-141c15-17 41-17 57-2 16 15 17 41 1 57 0 1 0 1-1 2z m-157-13c-69 0-124 56-124 124 0 69 55 124 124 124 68 0 124-55 124-124 0-68-55-124-124-124 0 0 0 0 0 0z"/>
<glyph glyph-name="menu" unicode="&#108;" d="M469 363l0 42-426 0 0-42z m0-86l0-42-426 0 0 42z m0-128l0-42-426 0 0 42z"/>
<glyph glyph-name="metals" unicode="&#109;" d="M256 155c-57 0-104 46-104 103 0 57 47 104 104 104 57 0 104-47 104-104 0-57-47-103-104-103z m0 177c-41 0-74-33-74-74 0-41 33-74 74-74 41 0 74 33 74 74 0 41-33 74-74 74z m32-328l-18 47c-9-1-19-1-28 0l-18-47-107 39 17 47c-8 6-15 12-22 19l-44-25-57 99 43 25c-2 9-4 19-5 28l-49 9 20 113 49-8c4 8 9 16 15 24l-33 39 88 74 33-39c8 4 17 7 27 10l0 50 114 0 0-50c10-3 19-6 27-10l33 39 88-74-33-39c6-8 11-16 15-24l49 8 20-113-49-9c-1-9-3-19-5-28l43-25-57-99-44 25c-7-7-14-13-22-19l17-47z m2 79l15-41 52 19-15 41 10 6c13 8 25 18 35 29l8 9 38-22 28 48-38 22 3 11c5 15 7 30 8 45l1 12 43 7-10 55-43-8-5 11c-5 14-13 27-22 39l-7 10 28 33-43 36-28-34-10 6c-14 7-28 12-43 15l-11 3 0 43-56 0 0-43-11-3c-15-3-29-8-43-15l-10-6-28 34-43-36 28-33-7-10c-9-12-17-25-22-39l-5-11-43 8-10-55 43-7 1-12c1-15 3-30 8-45l3-11-38-22 28-48 38 22 8-9c10-11 22-21 35-29l10-6-15-41 52-19 15 41 11-2c15-1 31-1 46 0z"/>
<glyph glyph-name="fragrances" unicode="&#110;" d="M477 181c0 61-30 116-81 148-18 11-28 29-28 49l0 19c0 5-4 10-10 10l-11 0 0 64c0 5-4 10-10 10l-69 0c-6 0-10-5-10-10l0-27-26 0c-3 17-16 34-37 46-22 14-49 22-74 22-51 0-86-32-86-78 0-46 35-79 86-79 25 0 52 8 74 22 21 13 34 29 37 47l26 0 0-17-11 0c-6 0-10-5-10-10l0-19c0-20-11-38-28-49-51-32-82-87-82-148 0-48 21-95 57-128-3-5-4-11-4-16 1-21 18-37 39-37l167 0c21 0 38 16 39 37 0 5-1 11-4 16 36 33 56 80 56 128z m-292 213c-19-12-43-19-64-19-40 0-66 24-66 59 0 35 26 58 66 58 21 0 45-7 64-18 18-12 28-26 28-40 0-14-10-29-28-40z m93 67l49 0 0-17-6 0c-5 0-10-5-10-10 0-6 5-10 10-10l6 0 0-17-49 0z m124-398c-4-4-5-10-1-14 2-3 4-8 4-12-1-9-9-17-19-17l-167 0c-10 0-19 8-19 17 0 4 1 9 4 12 4 4 3 10-1 14-35 29-56 73-56 118 0 54 28 103 73 131 23 15 37 39 37 66l0 9 35 0 0-126-86 0c-3 0-6-2-8-4-16-22-24-48-24-76 0-38 16-74 46-98l3-3c22-18 50-29 79-29 30 0 58 11 80 29l3 3c29 24 46 60 46 98 0 28-8 54-24 76-2 2-5 4-8 4l-87 0 0 126 36 0 0-9c0-27 14-51 37-66 45-28 72-77 72-131 0-45-20-89-55-118z m-100 146c6 0 10 4 10 10l0 22 81 0c12-18 18-38 18-60 0-32-14-62-39-83l-3-2c-18-16-42-25-67-25-24 0-48 9-66 25l-4 2c-24 21-38 51-38 83 0 22 6 42 17 60l81 0 0-22c0-6 5-10 10-10z m0-71c-5 0-10-4-10-10l0-20c0-6 5-10 10-10 6 0 10 4 10 10l0 20c0 6-4 10-10 10z m-9 33c0-4 4-7 8-8 4 0 8 2 10 5 2 4 2 9-1 12-3 3-8 4-11 2-5-1-7-6-6-11z"/>
<glyph glyph-name="toiletry" unicode="&#111;" d="M427 62c0 1 0 1 0 2 0 9-3 18-9 25 6 8 9 18 9 28 0 30-24 54-54 54-9 0-18-3-27-8-14 18-35 29-58 29-4 0-7-1-11-1l0 161c0 30-17 55-42 67l0 82c0 6-5 11-11 11l-107 0c-6 0-10-5-10-11l0-82c-25-12-43-37-43-67l0-309c0-24 19-43 43-43l128 0c10 0 19 4 26 10 8-6 17-10 27-10 15 0 30 9 37 22 4-1 7-1 11 0 8-13 22-22 37-22 9 0 17 2 23 7 6-4 13-7 20-7 18 0 32 14 32 32 0 14-9 26-21 30z m-299 429l85 0 0-65c-3 0-7 1-10 1l-64 0c-4 0-7-1-11-1z m107-470l-128 0c-12 0-22 10-22 22l0 309c0 29 24 53 54 53l64 0c29 0 53-24 53-53l0-168c-8-3-15-8-21-15-34 8-64-19-64-52 0-25 18-47 42-52 0 0 0-1 0-1 0-19 13-35 30-41-2-1-5-2-8-2z m181 0c-4 0-7 2-9 6-2 3-5 5-8 6-1 0-1 0-1 0-4 0-7-2-9-4-10-12-32-7-36 8-1 3-3 5-5 6-3 2-6 2-8 1-8-2-12-2-18 0-3 1-6 1-8-1-3-1-5-3-6-6-2-9-11-16-20-16-9 0-17 6-20 15-2 4-7 7-11 7-13 0-22 9-22 21 0 2 0 5 1 7 1 4 0 7-2 10-2 3-6 4-9 4-18 0-33 14-33 32 0 21 20 39 43 30 4-1 9 0 12 4 10 12 25 20 41 20 19 0 37-11 46-28 2-3 5-5 8-6 3 0 7 1 9 3 6 6 14 9 22 9 18 0 32-14 32-32 0-8-3-15-8-21-2-3-3-5-3-8 0-3 1-6 4-8 5-4 7-10 7-16 0-2 0-5-1-7-1-4-1-8 1-11 3-3 6-4 10-4 0 0 1 0 2 1 5-1 10-5 10-11 0-6-5-11-11-11z"/>
<glyph glyph-name="animal" unicode="&#112;" d="M499 307c0 31-17 58-43 72 0 4 1 9 1 13 0 44-36 80-80 80-11 0-22-3-32-7-11 16-26 29-44 38-5 2-11 0-14-5-2-5 0-11 5-14 18-7 32-21 41-37 1-3 4-4 6-5 3-1 6 0 8 1 9 6 20 9 30 9 33 0 60-27 60-60 0-5-1-11-2-16-2-5 1-10 6-12 23-9 38-32 38-57 0-17-7-33-20-44-2-3-3-7-2-10 1-6 2-11 2-17 0-25-16-47-39-56-4-1-7-5-7-10 0-1 0-2 0-3 0-33-26-60-59-60-9 0-17 2-25 5-3 2-8 1-11-2-16-16-38-25-61-25 0 0-1 0-1 0 0 0 0 0 0 0-23 0-45 9-61 25-3 3-8 4-12 2-7-3-15-5-24-5-33 0-59 27-59 60 0 1 0 2 0 3 0 5-3 9-7 10-23 9-39 31-39 56 0 6 1 11 2 17 1 3 0 7-3 10-12 11-19 27-19 44 0 25 15 48 38 57 5 2 8 7 6 12-1 5-2 11-2 16 0 33 27 60 59 60 11 0 22-3 31-9 2-1 5-2 8-1 2 1 5 2 6 5 9 16 23 30 41 37 5 3 7 9 5 14-3 5-8 7-14 5-18-8-33-22-45-38-10 4-20 7-32 7-43 0-79-36-79-80 0-4 0-9 1-13-26-14-43-41-43-72 0-20 8-40 22-55-2-5-2-11-2-16 0-31 18-59 46-72 1-41 33-74 74-77 0 0 0 0 0 0l0-66c0-12 9-21 21-21l18 0c12 0 21 9 21 21l0 53c13-6 28-9 42-9 0 0 0 0 0 0 0 0 1 0 1 0 14 0 29 3 42 9l0-53c0-12 9-21 21-21l18 0c12 0 21 9 21 21l0 66c0 0 0 0 0 0 41 3 73 36 74 77 28 13 46 41 46 72 0 5-1 11-2 16 14 15 22 35 22 55z m-305-286c0-1-1-1-1-1l-18 0c-1 0-1 0-1 1l0 66c0 1 0 1 0 2 4 0 8 1 11 3 3-3 6-5 9-7z m145 0c0-1-1-1-1-1l-18 0c-1 0-1 0-1 1l0 64c3 2 6 4 8 7 4-2 8-3 12-3 0-1 0-1 0-2z m-83 471l1 0c5 0 10 4 10 10 0 6-5 10-10 10l-1 0c-5 0-10-4-10-10 0-6 5-10 10-10z m-39-158c-5-5-12-8-19-8-15 0-26 12-26 27 0 5-5 10-10 10-6 0-10-5-10-10 0-14 6-27 16-36-13-4-31-9-48-11-6-1-11-5-14-11-2-6-1-12 2-17 15-22 40-27 54-28 1-56 43-102 94-102 52 0 94 46 95 102 14 1 39 5 55 28 4 5 4 11 2 17-2 6-7 10-13 11-19 3-36 7-50 12 10 8 16 21 16 35 0 5-4 10-10 10-5 0-10-5-10-10 0-15-12-27-26-27-7 0-14 3-19 8-2 3-5 4-9 3-3 0-5-2-7-5-4-9-13-15-23-15-10 0-19 6-24 15-1 3-4 5-7 5-4 1-7 0-9-3z m-90-48c16 3 32 8 45 12-4-9-7-18-8-28-10 1-27 4-37 16z m222-16c-1 10-4 19-8 28 13-4 29-8 47-12-12-13-29-16-39-16z m-92 27c13 0 25 6 34 16 7-4 14-6 22-7 11-15 18-34 18-54 0-42-28-78-65-83l0 13 14 11c4 4 5 10 1 14-3 4-10 5-14 2l-10-9-11 9c-4 3-10 2-14-2-3-4-3-10 2-14l12-10 0-14c-36 5-64 41-64 83 0 20 6 39 18 54 8 1 15 3 22 7 9-10 21-16 35-16z m-38-45c0-2 1-5 3-7 2-1 5-3 7-3 3 0 6 2 7 3 2 2 3 5 3 7 0 3-1 6-3 8-1 1-4 2-7 2-2 0-5-1-7-2-2-2-3-5-3-8z m65-10c2 0 5 2 7 3 1 2 3 5 3 7 0 3-2 6-3 8-2 1-5 2-7 2-3 0-6-1-8-2-1-2-2-5-2-8 0-2 1-5 2-7 2-1 5-3 8-3z"/>
<glyph glyph-name="preservatives" unicode="&#113;" d="M296 280c-6 0-10-4-10-10 0-6 4-10 10-10 6 0 10 4 10 10 0 6-4 10-10 10z m-40 60c-6 0-10-4-10-10 0-6 4-10 10-10 6 0 10 4 10 10 0 6-4 10-10 10z m-120-260c-6 0-10-4-10-10 0-6 4-10 10-10 6 0 10 4 10 10 0 6-4 10-10 10z m318 24l-128 229 0 121c12 4 20 15 20 28 0 17-13 30-30 30l-120 0c-17 0-30-13-30-30 0-13 8-24 20-28l0-121-128-229c-13-22-13-48 0-69 13-22 35-35 61-35l274 0c26 0 48 13 61 35 13 21 13 47 0 69z m-249 221c1 2 1 3 1 5l0 122 10 0c6 0 10 4 10 10 0 6-4 10-10 10l-20 0c-6 0-10 4-10 10 0 6 4 10 10 10l120 0c6 0 10-4 10-10 0-6-4-10-10-10l-20 0c-6 0-10-4-10-10 0-6 4-10 10-10l10 0 0-122c0-2 0-3 1-5l59-105c-36 3-72-4-105-21-42-22-89-26-134-11z m232-280c-9-16-26-25-44-25l-274 0c-18 0-35 9-44 25-9 15-9 34 0 50l42 75c21-7 42-11 64-11 3 0 6 0 9 0 28 2 55 9 81 22 33 18 71 24 107 18l59-104c9-16 9-35 0-50z m-221 235c-17 0-30-13-30-30 0-17 13-30 30-30 17 0 30 13 30 30 0 17-13 30-30 30z m0-40c-6 0-10 4-10 10 0 6 4 10 10 10 6 0 10-4 10-10 0-6-4-10-10-10z m160-160l-200 0c-6 0-10-4-10-10 0-6 4-10 10-10l200 0c6 0 10 4 10 10 0 6-4 10-10 10z"/>
<glyph glyph-name="barcode-1-1" unicode="&#115;" d="M78 134c-6 0-11 5-11 11l0 222c0 6 5 11 11 11 6 0 11-5 11-11l0-222c0-6-5-11-11-11z m44 44c-6 0-11 5-11 11l0 178c0 6 5 11 11 11 7 0 12-5 12-11l0-178c0-6-5-11-12-11z m45 0c-6 0-11 5-11 11l0 178c0 6 5 11 11 11 6 0 11-5 11-11l0-178c0-6-5-11-11-11z m44 0c-6 0-11 5-11 11l0 178c0 6 5 11 11 11 7 0 12-5 12-11l0-178c0-6-5-11-12-11z m45-44c-6 0-11 5-11 11l0 222c0 6 5 11 11 11 6 0 11-5 11-11l0-222c0-6-5-11-11-11z m45 44c-7 0-12 5-12 11l0 178c0 6 5 11 12 11 6 0 11-5 11-11l0-178c0-6-5-11-11-11z m44 0c-6 0-11 5-11 11l0 178c0 6 5 11 11 11 6 0 11-5 11-11l0-178c0-6-5-11-11-11z m45 0c-7 0-12 5-12 11l0 178c0 6 5 11 12 11 6 0 11-5 11-11l0-178c0-6-5-11-11-11z m44-44c-6 0-11 5-11 11l0 222c0 6 5 11 11 11 6 0 11-5 11-11l0-222c0-6-5-11-11-11z m-312 0c-1 0-2 0-4 0-1 1-2 2-3 3-5 4-5 11-1 15 0 0 1 0 1 0 1 2 2 2 3 3 4 2 9 1 12-3 5-4 4-11 0-15-2-2-5-3-8-3z m45 0c-2 0-3 0-4 0-2 1-3 2-4 3-4 4-4 11 0 15 0 0 0 0 0 0 1 2 2 2 4 3 4 2 9 1 12-3 1 0 2-2 2-3 1-3 1-6 0-9 0-1-1-2-2-3-2-2-5-3-8-3z m44 0c-1 0-2 0-4 0-1 1-2 2-3 3-5 4-5 11-1 15 0 0 1 0 1 0 1 2 2 2 3 3 4 2 9 1 12-3 1 0 2-2 3-3 1-3 1-6 0-9-1-1-2-2-3-3-2-2-5-3-8-3z m90 0c-7 0-12 5-11 11 0 3 1 5 3 7 4 5 11 5 15 0 1 0 2-2 3-3 1-3 1-6 0-9-1-1-2-2-3-3-2-2-5-3-7-3z m44 0c-6 0-11 5-11 11 0 3 1 5 3 7 5 5 12 5 16 0 4-4 4-11 0-15-2-2-5-3-8-3z m45 0c-3 0-6 1-8 3-1 1-2 2-3 3-1 3-1 6 0 9 1 1 2 3 3 3 4 5 11 5 15 0 5-4 5-11 0-15-2-2-5-3-7-3z m-379 222c-6 0-11 5-11 11l0 67c0 6 5 11 11 11l67 0c6 0 11-5 11-11 0-6-5-11-11-11l-56 0 0-56c0-6-5-11-11-11z m67-289l-67 0c-6 0-11 5-11 11l0 67c0 6 5 11 11 11 6 0 11-5 11-11l0-56 56 0c6 0 11-5 11-11 0-6-5-11-11-11z m423 289c-6 0-11 5-11 11l0 56-56 0c-6 0-11 5-11 11 0 6 5 11 11 11l67 0c6 0 11-5 11-11l0-67c0-6-5-11-11-11z m0-289l-67 0c-6 0-11 5-11 11 0 6 5 11 11 11l56 0 0 56c0 6 5 11 11 11 6 0 11-5 11-11l0-67c0-6-5-11-11-11z m-423 67c-6 0-11 5-11 11l0 222c0 6 5 11 11 11 6 0 11-5 11-11l0-222c0-6-5-11-11-11z m44 44c-6 0-11 5-11 11l0 178c0 6 5 11 11 11 7 0 12-5 12-11l0-178c0-6-5-11-12-11z m45 0c-6 0-11 5-11 11l0 178c0 6 5 11 11 11 6 0 11-5 11-11l0-178c0-6-5-11-11-11z m44 0c-6 0-11 5-11 11l0 178c0 6 5 11 11 11 7 0 12-5 12-11l0-178c0-6-5-11-12-11z m45-44c-6 0-11 5-11 11l0 222c0 6 5 11 11 11 6 0 11-5 11-11l0-222c0-6-5-11-11-11z m45 44c-7 0-12 5-12 11l0 178c0 6 5 11 12 11 6 0 11-5 11-11l0-178c0-6-5-11-11-11z m44 0c-6 0-11 5-11 11l0 178c0 6 5 11 11 11 6 0 11-5 11-11l0-178c0-6-5-11-11-11z m45 0c-7 0-12 5-12 11l0 178c0 6 5 11 12 11 6 0 11-5 11-11l0-178c0-6-5-11-11-11z m44-44c-6 0-11 5-11 11l0 222c0 6 5 11 11 11 6 0 11-5 11-11l0-222c0-6-5-11-11-11z m-312 0c-1 0-2 0-4 0-1 1-2 2-3 3-5 4-5 11-1 15 0 0 1 0 1 0 1 2 2 2 3 3 3 1 6 1 9 0 1-1 2-1 3-3 5-4 4-11 0-15-2-2-5-3-8-3z m45 0c-6 0-11 5-11 11 0 3 1 5 3 7 3 4 8 5 12 3 2-1 3-1 4-3 4-4 4-11 0-15-2-2-5-3-8-3z m44 0c-6 0-11 5-11 11 1 3 2 5 4 7 1 2 2 2 3 3 4 2 9 1 12-3 5-4 4-11 0-15-2-2-5-3-8-3z m90 0c-2 0-3 0-5 0-1 1-2 2-3 3-5 4-5 11-1 15 0 0 1 0 1 0 1 2 2 2 3 3 3 1 6 1 9 0 1-1 2-1 3-3 5-4 5-11 0-15-2-2-5-3-7-3z m44 0c-1 0-3 0-4 0-2 1-3 2-4 3-4 4-4 11 0 15 0 0 0 0 0 0 5 5 12 5 16 0 4-4 4-10 0-15 0 0 0 0 0 0-1-1-2-2-4-3-1 0-2 0-4 0z m45 0c-2 0-3 0-5 0-1 1-2 2-3 3-2 2-4 5-4 8 0 1 1 3 1 4 1 1 2 3 3 3 1 2 2 2 3 3 4 2 9 1 12-3 1 0 2-2 3-3 0-1 1-3 1-4 0-6-5-11-11-11z m-379 222c-6 0-11 5-11 11l0 67c0 6 5 11 11 11l67 0c6 0 11-5 11-11 0-6-5-11-11-11l-56 0 0-56c0-6-5-11-11-11z m67-289l-67 0c-6 0-11 5-11 11l0 67c0 6 5 11 11 11 6 0 11-5 11-11l0-56 56 0c6 0 11-5 11-11 0-6-5-11-11-11z m423 289c-6 0-11 5-11 11l0 56-56 0c-6 0-11 5-11 11 0 6 5 11 11 11l67 0c6 0 11-5 11-11l0-67c0-6-5-11-11-11z m0-289l-67 0c-6 0-11 5-11 11 0 6 5 11 11 11l56 0 0 56c0 6 5 11 11 11 6 0 11-5 11-11l0-67c0-6-5-11-11-11z"/>
<glyph glyph-name="user" unicode="&#114;" d="M256 21c-130 0-235 105-235 235 0 130 105 235 235 235 130 0 235-105 235-235 0-130-105-235-235-235z m158 126c21 31 34 68 34 109 0 106-86 192-192 192-106 0-192-86-192-192 0-41 13-78 34-109 24 31 81 45 158 45 77 0 134-14 158-45z m-31-35c-6 23-51 37-127 37-76 0-121-14-127-37 34-30 78-48 127-48 49 0 93 18 127 48z m-127 80c-48 0-85 34-85 107 0 48 33 85 85 85 52 0 85-41 85-90 0-70-38-102-85-102z m-43 107c0-49 18-64 43-64 25 0 43 15 43 59 0 27-17 47-43 47-27 0-43-17-43-42z"/>
<glyph glyph-name="caret-right" unicode="&#116;" d="M329 256c0-5-2-9-5-13l-128-128c-4-3-8-5-13-5-5 0-9 2-13 5-4 4-5 8-5 13l0 256c0 5 1 9 5 13 4 3 8 5 13 5 5 0 9-2 13-5l128-128c3-4 5-8 5-13z"/>
<glyph glyph-name="caret-down" unicode="&#118;" d="M402 311c0-5-2-9-5-13l-128-128c-4-4-8-5-13-5-5 0-9 1-13 5l-128 128c-3 4-5 8-5 13 0 5 2 9 5 13 4 3 8 5 13 5l256 0c5 0 9-2 13-5 3-4 5-8 5-13z"/>
<glyph glyph-name="alarm-clock-1" unicode="&#117;" d="M256 410c-104 0-188-84-188-188 0-104 84-188 188-188 104 0 188 84 188 188 0 103-84 187-188 188z m9-358l0 25c0 5-4 8-9 8-5 0-9-3-9-8l0-25c-87 4-157 74-161 161l25 0c5 0 8 4 8 9 0 5-3 8-8 8l-25 0c4 91 79 163 170 163 91 0 166-72 170-163l-25 0c-5 0-8-3-8-8 0-5 3-9 8-9l25 0c-4-87-74-157-161-161z m-9 323c-5 0-9-3-9-8l0-142-61-61c-2-2-3-5-2-8 0-3 3-6 6-6 3-1 6 0 8 2l64 64c2 1 3 4 3 6l0 145c0 5-4 8-9 8z m241 26l-48 49c-20 19-53 19-73 0l-26-27c-22 10-45 16-68 19l0 19 17 0c9 0 17 7 17 17l0 17c0 9-8 17-17 17l-86 0c-9 0-17-8-17-17l0-17c0-10 8-17 17-17l17 0 0-19c-23-3-46-9-68-19l-26 27c-20 19-53 19-73 0l-48-49c-20-20-20-52 0-72l32-32c-26-73-12-153 36-213l-38-57c-4-6-4-12-1-18 3-6 8-9 15-9l26 0c5 0 11 3 14 8l24 36c80-59 189-59 268 2l22-37c3-6 9-9 15-9l26 0c6 0 12 3 15 9 3 5 3 12 0 17l-37 61c46 59 58 139 33 210l32 32c20 20 20 52 0 72z m-284 94l86 0 0-17-86 0z m34-34l18 0 0-17c-3 0-6 0-9 0-3 0-6 0-9 0z m-220-120c-13 13-13 35 0 48l48 48c14 14 35 14 49 0l22-22c-40-24-72-59-92-101z m58-324l-26 0 35 53c5-5 10-10 16-15z m369 0l-26 0-24 40c6 5 11 10 16 16z m-198 0c-68 0-131 33-169 89-38 56-46 127-22 190l0 0c28 73 96 123 174 130 6 0 11 1 17 1 6 0 11-1 17-1 78-7 146-57 174-130l0 0c24-63 16-134-22-190-38-56-101-89-169-89z m229 324l-27-27c-20 42-52 77-92 101l22 22c14 14 35 14 49 0l48-48c13-13 13-35 0-48z"/>
<glyph glyph-name="alarm-clock-2" unicode="&#119;" d="M418 512c-22 0-44-8-61-23-64 31-138 31-202 0-39 34-97 30-131-8-34-38-32-96 6-131-34-100 1-210 87-271l-23-41c-5-8-5-17 0-25 4-8 12-13 22-13 2 0 4 0 6 1 7 2 12 6 16 12l23 41c61-26 129-26 189 0l24-41c3-6 9-10 16-12 2-1 4-1 6-1 9 0 18 5 22 13 5 8 5 17 0 25l-23 41c86 61 121 171 87 271 28 26 38 67 23 103-14 36-48 59-87 59z m-401-94c0 29 16 55 41 68 26 14 57 11 80-5-45-26-81-66-102-114-12 14-19 32-19 51z m106-397c-1-2-3-3-5-4-2 0-5 0-7 1-2 1-3 3-4 5 0 3 0 5 1 7l23 39c5-3 10-5 15-8z m281 9c1-2 1-4 1-7-1-2-3-4-5-5-1-1-4-1-6-1-2 1-4 2-5 4l-23 40c5 3 10 5 15 8z m-148 21c-123 0-222 100-222 222 0 123 99 222 222 222 122 0 222-99 222-222 0-122-100-222-222-222z m219 316c-20 48-56 88-101 114 32 22 75 17 101-12 26-29 26-73 0-102z m-42 9c-18 31-44 56-74 74 0 0 0 0-1 0 0 1 0 1 0 1-63 36-141 36-204 0 0 0 0 0 0-1-1 0-1 0-1 0-31-18-56-43-74-74 0 0 0 0 0-1 0 0 0 0-1 0-36-63-36-141 0-204 1 0 1 0 1 0 0 0 0-1 0-1 18-31 44-56 74-74 0 0 0 0 1 0 0 0 0 0 0-1 63-36 141-36 204 0 0 1 0 1 0 1 1 0 1 0 1 0 30 18 56 43 74 74 0 0 0 0 0 1 0 0 0 0 1 0 36 63 36 141 0 204-1 0-1 0-1 0 0 1 0 1 0 1z m-76-261l-4 7c-2 3-4 4-7 4-4 0-6-1-8-4-1-2-1-6 0-8l4-8c-24-12-50-19-78-20l0 8c0 5-3 8-8 8-5 0-9-3-9-8l0-8c-27 1-53 8-77 20l4 8c1 2 1 6 0 8-2 3-5 4-8 4-3 0-6-1-7-4l-4-7c-23 15-42 34-57 57l7 4c3 2 4 4 4 7 0 4-1 6-4 8-3 1-6 1-9 0l-7-4c-12 24-19 50-21 78l9 0c4 0 8 3 8 8 0 5-4 9-8 9l-9 0c2 27 9 53 21 77l7-4c3-1 6-1 9 0 3 2 4 5 4 8 0 3-1 6-4 7l-7 4c15 23 34 42 57 57l4-7c1-3 4-4 7-4 3 0 6 1 8 4 1 3 1 6 0 9l-4 7c24 12 50 19 77 21l0-9c0-4 4-8 9-8 5 0 8 4 8 8l0 9c28-2 54-9 78-21l-4-7c-1-3-1-6 0-9 2-3 4-4 8-4 3 0 5 1 7 4l4 7c23-15 42-34 57-57l-7-4c-3-1-4-4-4-7 0-3 1-6 4-8 3-1 6-1 8 0l8 4c12-24 19-50 20-77l-8 0c-5 0-8-4-8-9 0-5 3-8 8-8l8 0c-1-28-8-54-20-78l-8 4c-2 1-5 1-8 0-3-2-4-4-4-8 0-3 1-5 4-7l7-4c-15-23-34-42-57-57z m4 286c-9 1-18-3-24-10l-121-150-28 27c-6 6-14 9-22 7-9-1-16-6-20-14l0-1c-5-10-4-22 4-29l54-61c5-6 12-9 19-9l2 0c7 1 15 5 19 11l135 188c5 7 6 17 3 26-4 8-12 14-21 15z m4-32l-135-187c-1-2-4-3-6-4-3 0-5 1-7 3l-55 61c-2 3-3 7-1 10l1 2c1 2 3 4 6 5 1 0 1 0 2 0 2 0 5-1 6-3l34-34c2-2 4-3 7-2 2 0 4 1 6 3l128 158c3 3 8 4 12 1 4-3 5-8 2-13z"/>
<glyph glyph-name="cross" unicode="&#120;" d="M256 512c-141 0-256-114-256-256 0-141 114-256 256-256 141 0 256 114 256 256 0 141-114 256-256 256z m160-416c-88-88-232-88-320 0-88 88-88 232 0 320 44 44 102 66 160 66 58 0 116-22 160-66 88-88 88-232 0-320z m-18 242c0 33-27 60-60 60-16 0-31-6-42-18l-40-39-40 39c-11 12-26 18-42 18-33 0-60-27-60-60 0-16 6-31 18-42l39-40-39-40c-12-11-18-26-18-42 0-33 27-60 60-60 16 0 31 6 42 18l40 39 40-39c11-12 26-18 42-18 33 0 60 27 60 60 0 16-6 31-18 42l-39 40 39 40c12 11 18 26 18 42z m-39-21l-50-50c-6-6-6-16 0-22l50-50c6-5 9-13 9-21 0-17-13-30-30-30-8 0-16 3-21 9l-50 50c-6 6-16 6-22 0l-50-50c-5-6-13-9-21-9-17 0-30 13-30 30 0 8 3 16 9 21l50 50c6 6 6 16 0 22l-50 50c-6 5-9 13-9 21 0 17 13 30 30 30 8 0 16-3 21-9l50-50c6-6 16-6 22 0l50 50c5 6 13 9 21 9 17 0 30-13 30-30 0-8-3-16-9-21z"/>
<glyph glyph-name="sad" unicode="&#121;" d="M177 283c-16 0-30-17-30-37 0-20 14-36 30-36 17 0 30 16 30 36 0 20-13 37-30 37z m0-58c-8 0-15 10-15 21 0 12 7 22 15 22 9 0 15-10 15-22 0-11-6-21-15-21z m158 58c-17 0-31-17-31-37 0-20 14-36 31-36 16 0 30 16 30 36 0 20-14 37-30 37z m0-58c-9 0-16 10-16 21 0 12 7 22 16 22 8 0 15-10 15-22 0-11-7-21-15-21z m-21-88c-23 50-93 50-116 0-1-3 0-8 4-10 4-1 8 0 10 4 17 38 71 38 88 0 1-3 4-4 7-4 5 0 9 5 7 10z m66 172c-16 15-35 23-56 23-4-1-7-4-7-8 0-4 3-8 7-7 17 0 33-7 46-19 1-1 3-2 5-2 7 0 10 8 5 13z m-192 23c-21 0-41-8-56-23-3-3-3-8 0-11 1-1 3-2 5-2 2 0 4 1 5 2 13 12 28 19 44 19 1 0 1 0 2 0 0 0 0 0 0 0 4 0 7 3 7 7 0 4-3 7-7 8z m-10-192l-3 6c-2 4-6 5-10 4-4-2-5-7-3-10l3-7c8-20-7-42-29-42-21 1-35 23-26 42l28 53 8-15c2-4 6-5 10-3 4 1 5 6 3 10l-8 16c-2 4-7 8-12 8 0 0-1 0-1 0-5 0-10-3-12-8-31-58-30-54-30-55-13-29 8-63 40-63 35 0 55 38 42 64z m300 244c-75 129-244 168-367 83-4-3-4-7-2-11 2-3 7-4 10-2 117 80 275 44 346-78 58-100 35-226-49-300-3-3-4-8-1-11 3-3 7-3 11-1 89 80 113 213 52 320z m-79-331c-2 3-7 4-10 2-5-3-9-5-13-8-55-32-120-40-182-24-184 50-240 283-101 410 3 3 3 8 0 11-3 3-7 3-10 0-148-135-88-383 107-435 71-19 145-7 207 33 3 3 4 7 2 11z"/>
<glyph glyph-name="google" unicode="&#122;" d="M465 298l-17 0 0 1-192 0 0-86 121 0c-18-49-65-85-121-85-71 0-128 57-128 128 0 71 57 128 128 128 33 0 62-12 85-32l60 60c-38 35-89 57-145 57-118 0-213-95-213-213 0-118 95-213 213-213 118 0 213 95 213 213 0 14-1 28-4 42z m-398 57l70-51c19 47 65 80 119 80 33 0 62-12 85-32l60 60c-38 35-89 57-145 57-82 0-153-46-189-114z m189-312c55 0 105 21 143 55l-66 56c-22-17-49-26-77-26-55 0-103 35-120 85l-70-54c35-69 107-116 190-116z m209 255l-17 0 0 1-192 0 0-86 121 0c-9-23-24-44-44-59l0 0 66-56c-5-4 70 51 70 158 0 14-1 28-4 42z"/>
<glyph glyph-name="filter" unicode="&#65;" d="M456 512l-400 0c-13 0-24-11-24-24l0-47c0-7 3-14 7-20l166-203c2-3 3-7 3-11l0-191c0-6 3-11 8-14 2-1 5-2 8-2 2 0 5 1 7 2l60 29c8 5 13 13 13 22l0 154c0 4 1 8 3 11l166 203c4 6 7 13 7 20l0 47c0 13-11 24-24 24z m-167-305l0-154c0-4-2-7-5-8l-60-30c0 0 0 0 0 0-1 0-1 0-1 1l0 191c0 1 0 1 0 1l66 0c0 0 0 0 0-1z m176 241l-25 0c-4 0-7-3-7-8 0-4 3-7 7-7l23 0c-1-1-1-2-2-3l-165-203c-1-1-2-2-3-4l-74 0c-1 2-2 3-3 4l-165 203c-1 1-1 2-2 3l23 0c4 0 7 3 7 7 0 5-3 8-7 8l-25 0 0 40c0 5 4 9 9 9l400 0c5 0 9-4 9-9z m-57 0l-304 0c-4 0-8-3-8-8 0-4 4-7 8-7l304 0c4 0 8 3 8 7 0 5-4 8-8 8z"/>
<glyph glyph-name="request" unicode="&#66;" d="M488 311c0 0 0 0 0 0l0 0c0 0 0 0 0 0 0 0 0 0 0 0l-75 70 0 33c0 4-4 7-8 7-4 0-7-3-7-7l0-178-125-116c-9-9-25-9-34 0l-125 116 0 219c0 5 4 9 9 9l266 0c5 0 9-4 9-9l0-11c0-5 3-8 7-8 4 0 8 3 8 8l0 11c0 13-11 24-24 24l-81 0-24 22c-16 15-40 15-56 0l-24-22-81 0c-13 0-24-11-24-24l0-74-75-70c0 0 0 0 0 0 0 0 0 0 0 0l0 0c0 0 0 0 0 0-5-5-7-11-7-18l0-252c0-23 18-41 40-41l35 0c4 0 7 3 7 7 0 5-3 8-7 8l-35 0c-14 0-25 11-25 26l0 252 196-184c8-7 18-10 28-10 10 0 20 3 28 10l196 184 0-252c0-15-11-26-25-26l-333 0c-4 0-8-3-8-8 0-4 4-7 8-7l333 0c22 0 40 18 40 41l0 252c0 7-2 13-7 18z m-249 179c9 9 25 9 34 0l13-11-60 0z m-140-240l-59 55 59 55z m314 110l59-55-59-55z m25-327c14 0 24 11 24 24 0 13-10 24-24 24l-66 0c-13 0-24-11-24-24 0-13 11-24 24-24z m-75 24c0 5 4 9 9 9l66 0c5 0 9-4 9-9 0-5-4-9-9-9l-66 0c-5 0-9 4-9 9z m-107 226c-13 0-24-11-24-25 0-13 11-24 24-24 13 0 24 11 24 24 0 14-11 25-24 25z m0-34c-5 0-9 4-9 9 0 5 4 10 9 10 5 0 9-5 9-10 0-5-4-9-9-9z m24 90c22 10 35 32 33 56-2 28-25 51-53 53-16 1-31-4-43-15-12-11-18-26-18-42 0-13 11-24 24-24 13 0 24 11 24 24 0 3 1 5 3 7 2 1 4 2 7 2 4 0 8-4 8-8 0-4-2-8-6-9-16-7-27-23-27-42l0-16c0-14 11-24 24-24 13 0 24 10 24 24z m-8 13c-4-2-7-6-7-11l0-16c0-5-4-9-9-9-5 0-9 4-9 9l0 16c0 12 7 23 18 28 10 4 16 13 15 24-1 11-11 21-22 22-1 0-1 0-2 0-6 0-12-2-16-6-5-5-8-11-8-18 0-5-4-9-9-9-5 0-9 4-9 9 0 12 5 23 13 31 9 8 20 12 32 11 21-1 38-18 39-39 1-18-9-35-26-42z"/>
<glyph glyph-name="heart-2" unicode="&#68;" d="M367 468c-43 0-83-19-111-51-27 33-68 51-111 51-80 0-145-65-145-145 0-138 240-272 250-277 3-3 9-3 12 0 10 5 250 137 250 277 0 80-65 145-145 145z"/>
<glyph glyph-name="home" unicode="&#69;" d="M508 277l-106 92c-3 3-7 2-10-1-3-3-2-7 1-10l99-86-45 0-184 160c-4 3-10 3-14 0l-184-160-45 0 69 59c0 0 0 0 0 0l64 57c0 0 0 0 0 0l103 89 111-96c3-3 7-2 10 1 2 3 2 7-1 10l-113 98c-4 4-10 4-14 0l-80-69 0 20c0 7-5 12-12 12l-85 0c-6 0-12-5-12-12l0-21c0-6 6-12 12-12l4 0 0-68-72-63c-4-3-5-8-3-12 1-5 6-8 10-8l49 0 0-129c0-4 4-7 8-7 4 0 7 3 7 7l0 133 181 158 181-158 0-223c0-3-2-4-4-4l-108 0 0 184c0 9-8 17-18 17l-93 0c-10 0-18-8-18-17l0-184-117 0c-2 0-4 1-4 4l0 55c0 4-3 7-7 7-4 0-8-3-8-7l0-55c0-11 9-19 19-19l354 0c10 0 19 8 19 19l0 219 49 0c4 0 9 3 10 8 2 4 1 9-3 12z m-367 119l-50-43 0 55 50 0z m-66 27l0 15 79 0 0-15z m235-389l-99 0 0 184c0 1 1 3 3 3l93 0c2 0 3-2 3-3z"/>
<glyph glyph-name="list" unicode="&#70;" d="M332 512l-277 0 0-512 402 0 0 388z m5-29l90-90-90 0z m-264-466l0 478 247 0 0-120 119 0 0-358z m290 316l-137 0c-5 0-8-4-8-9 0-4 3-8 8-8l137 0c4 0 8 4 8 8 0 5-4 9-8 9z m-168 24l-36-30-12 12c-4 3-9 3-12 0-4-4-4-9 0-12l17-17c1-2 4-3 6-3 2 0 4 1 5 2l43 34c4 3 4 9 1 12-3 4-8 4-12 2z m168-118l-137 0c-5 0-8-4-8-9 0-4 3-8 8-8l137 0c4 0 8 4 8 8 0 5-4 9-8 9z m-168 24l-36-30-12 12c-4 3-9 3-12 0-4-3-4-9 0-12l17-17c1-2 4-3 6-3 2 0 4 1 5 2l43 34c4 3 4 9 1 12-3 4-8 5-12 2z m168-118l-137 0c-5 0-8-4-8-8 0-5 3-9 8-9l137 0c4 0 8 4 8 9 0 4-4 8-8 8z m-168 24l-36-30-12 12c-4 3-9 3-12 0-4-3-4-9 0-12l17-17c1-2 4-3 6-3 2 0 4 1 5 2l43 34c4 3 4 9 1 12-3 4-8 5-12 2z"/>
<glyph glyph-name="exit" unicode="&#71;" d="M498 253c1 2 1 4 0 6-1 2-2 3-2 3l-110 110c-4 4-9 4-13 0-4-3-4-9 0-13l94-94-280 0c-5 0-9-4-9-9 0-5 4-9 9-9l280 0-94-94c-4-4-4-10 0-13 2-2 4-3 6-3 3 0 5 1 7 3l110 110c0 0 1 1 2 3z m-164-43c-5 0-9-4-9-9l0-183-293 0 0 476 293 0 0-183c0-5 4-9 9-9 5 0 9 4 9 9l0 192c0 5-4 9-9 9l-311 0c-5 0-9-4-9-9l0-494c0-5 4-9 9-9l311 0c5 0 9 4 9 9l0 192c0 5-4 9-9 9z"/>
<glyph glyph-name="heart" unicode="&#67;" d="M367 468c-43 0-83-19-111-51-27 33-68 51-111 51-80 0-145-65-145-145 0-138 240-272 250-277 3-3 9-3 12 0 10 5 250 137 250 277 0 80-65 145-145 145z m-111-396c-38 22-230 139-230 251 0 66 53 119 119 119 41 1 78-20 100-54 4-6 13-7 19-3 1 1 2 2 3 3 36 55 110 71 165 35 34-22 54-60 54-100 0-113-192-230-230-251z"/>
<glyph glyph-name="exclamation" unicode="&#72;" d="M311 155l0-64c0-5-2-9-6-12-3-4-7-6-12-6l-74 0c-5 0-9 2-12 6-4 3-6 7-6 12l0 64c0 5 2 10 6 13 3 4 7 6 12 6l74 0c5 0 9-2 12-6 4-3 6-8 6-13z m8 302l-8-219c0-5-2-10-5-13-4-4-8-6-13-6l-74 0c-5 0-9 2-13 6-3 3-5 8-5 13l-8 219c-1 5 1 9 5 13 3 4 7 5 12 5l92 0c5 0 9-1 12-5 4-4 6-8 5-13z"/>
<glyph glyph-name="check-2" unicode="&#73;" d="M451 443l-252-252-138 137-61-61 199-198 313 313z"/>
<glyph glyph-name="exclamation-2" unicode="&#74;" d="M322 509c-2 2-5 3-8 3l-118 0c-3 0-6-1-8-3-2-2-3-5-3-8l9-321c0-5 5-10 11-10l100 0c6 0 11 5 11 10l9 321c0 3-1 6-3 8z m-17-393l-100 0c-6 0-11-5-11-11l0-92c0-6 5-11 11-11l100 0c6 0 11 5 11 11l0 92c-1 6-5 11-11 11z"/>
<glyph glyph-name="trashcan" unicode="&#107;" d="M416 448l-128 0c0 0 0 12 0 16 0 9-7 16-16 16-9 0-16-7-16-16 0-9 0-16 0-16l-128 0c-18 0-32-14-32-32l0-32c0-18 14-32 32-32l0-288c0-18 14-32 32-32l224 0c18 0 32 14 32 32l0 288c18 0 32 14 32 32l0 32c0 18-14 32-32 32z m-32-368c0-9-7-16-16-16l-192 0c-9 0-16 7-16 16l0 272 32 0 0-240c0-9 7-16 16-16 9 0 16 7 16 16l0 240 32 0 0-240c0-9 7-16 16-16 9 0 16 7 16 16l0 240 32 0 0-240c0-9 7-16 16-16 9 0 16 7 16 16l0 240 32 0z m32 312c0-4-4-8-8-8l-272 0c-4 0-8 4-8 8l0 16c0 4 4 8 8 8l272 0c4 0 8-4 8-8z"/>
<glyph glyph-name="trash" unicode="&#75;" d="M87 311c42-24 98-36 169-36 71 0 127 12 169 36 0 0-28-249-28-249 0-4-6-10-18-18-11-7-28-15-51-22-23-7-47-11-72-11-25 0-49 4-72 11-22 7-39 15-51 22-11 8-18 14-18 18 0 0-28 249-28 249m250 154c32-6 59-16 81-28 22-13 33-25 33-37 0 0 0-5 0-5 0-20-20-36-58-50-38-14-84-21-137-21-53 0-99 7-137 21-38 14-58 30-58 50 0 0 0 5 0 5 0 12 11 24 33 37 22 12 49 22 81 28 0 0 22 24 22 24 7 9 19 14 35 14 0 0 48 0 48 0 17 0 29-5 35-14 0 0 22-24 22-24m-28-57c0 0 43 0 43 0-31 37-49 59-53 64-5 6-10 8-16 8 0 0-53 0-53 0-7 0-13-2-16-8 0 0-54-64-54-64 0 0 43 0 43 0 0 0 33 33 33 33 0 0 42 0 42 0 0 0 31-33 31-33"/>
<glyph glyph-name="skincare" unicode="&#76;" d="M301 463c-15 17-29 33-39 46 0 1-1 1-1 1-4 3-8 2-11-1 0 0 0 0 0 0-11-13-24-28-39-46-64-75-154-178-154-264 0-110 89-199 199-199 110 0 199 89 199 199 0 85-90 189-154 264z m85-394c-72-72-188-72-260 0-34 35-54 81-54 130 0 80 88 181 151 255 12 14 23 26 33 38 10-12 21-24 33-38 63-74 151-175 151-255 0-49-20-96-54-130z m-129 11l0 0c-64 0-115 52-116 116 0 0 0 0 0 0 0 4-3 7-7 7-4 0-8-3-8-7 0-72 59-131 131-131 0 0 0 0 0 0 4 0 7 4 7 8 0 4-3 7-7 7z"/>
<glyph glyph-name="barcode" unicode="&#77;" d="M85 461l-68 0c-9 0-17-8-17-17l0-69c0-9 8-17 17-17 9 0 17 8 17 17l0 52 51 0c10 0 17 7 17 17 0 9-7 17-17 17z m410-307c-9 0-17-8-17-17l0-52-51 0c-10 0-17-7-17-17 0-9 7-17 17-17l68 0c9 0 17 8 17 17l0 69c0 9-8 17-17 17z m0 307l-68 0c-10 0-17-8-17-17 0-10 7-17 17-17l51 0 0-52c0-9 8-17 17-17 9 0 17 8 17 17l0 69c0 9-8 17-17 17z m-410-376l-51 0 0 52c0 9-8 17-17 17-9 0-17-8-17-17l0-69c0-9 8-17 17-17l68 0c10 0 17 8 17 17 0 10-7 17-17 17z m-17 308l34 0 0-274-34 0z m69 0l34 0 0-205-34 0z m68 0l34 0 0-205-34 0z m68 0l34 0 0-274-34 0z m68 0l34 0 0-205-34 0z m69 0l34 0 0-274-34 0z m-273-239l34 0 0-35-34 0z m68 0l34 0 0-35-34 0z m136 0l34 0 0-35-34 0z"/>
</font>
</defs>
</svg>
