<svg id="Capa_1" enable-background="new 0 0 512 512" height="512" viewBox="0 0 512 512" width="512" xmlns="http://www.w3.org/2000/svg"><g><g><path d="m477.313 330.595c0-60.272-30.523-115.489-81.649-147.704-17.248-10.87-27.545-29.231-27.545-49.119v-18.479c0-5.522-4.477-10-10-10h-10.842v-64.006c0-5.523-4.477-10-10-10h-69.742c-5.523 0-10 4.477-10 10v27.003h-25.309c-3.55-17.479-16.37-33.802-36.98-46.755-21.777-13.685-49.013-21.535-74.725-21.535-50.538 0-85.833 32.194-85.833 78.29s35.296 78.29 85.833 78.29c25.712 0 52.948-7.85 74.724-21.535 20.61-12.953 33.43-29.275 36.98-46.755h25.309v17.003h-10.842c-5.523 0-10 4.478-10 10v18.479c0 19.887-10.297 38.249-27.545 49.118-51.126 32.216-81.65 87.433-81.65 147.705 0 48.853 20.325 95.052 56.06 128.075-2.357 5.186-3.526 10.883-3.365 16.668.563 20.216 17.768 36.662 38.352 36.662h167.721c20.584 0 37.789-16.446 38.353-36.662.161-5.785-1.009-11.481-3.365-16.668 35.734-33.023 56.06-79.222 56.06-128.075zm-292.711-212.484c-18.4 11.564-42.356 18.469-64.082 18.469-39.377 0-65.833-23.425-65.833-58.29s26.456-58.29 65.833-58.29c21.726 0 45.682 6.904 64.082 18.469 18.196 11.436 28.632 25.95 28.632 39.821s-10.436 28.386-28.632 39.821zm92.932-66.824h49.742v17.003h-6.188c-5.523 0-10 4.478-10 10s4.477 10 10 10h6.188v17.003h-49.742zm124.396 397.752c-4.205 3.521-4.789 9.772-1.31 14.012 2.702 3.291 4.125 7.457 4.005 11.729-.265 9.495-8.501 17.22-18.361 17.22h-167.72c-9.859 0-18.096-7.725-18.36-17.219-.119-4.273 1.303-8.44 4.005-11.73 3.48-4.239 2.895-10.49-1.309-14.012-35.197-29.475-55.383-72.646-55.383-118.444 0-53.361 27.033-102.252 72.313-130.784 23.095-14.554 36.883-39.241 36.883-66.039v-8.479h35.713v125.684h-86.182c-3.202 0-6.211 1.533-8.092 4.125-16.084 22.155-24.585 48.26-24.585 75.492 0 38.116 16.801 74.047 46.096 98.579l3.082 2.581c22.288 18.665 50.586 28.944 79.682 28.944 29.095 0 57.394-10.279 79.682-28.944l3.082-2.581c29.294-24.532 46.096-60.463 46.096-98.579 0-27.233-8.501-53.338-24.586-75.492-1.881-2.592-4.89-4.125-8.092-4.125h-86.182v-125.684h35.713v8.479c0 26.798 13.788 51.485 36.883 66.04 45.279 28.531 72.312 77.422 72.312 130.783-.002 45.799-20.189 88.97-55.385 118.444zm-99.526-145.599c5.523 0 10-4.478 10-10v-22.463h80.945c11.736 17.794 17.914 38.301 17.914 59.617 0 32.182-14.192 62.523-38.937 83.245l-3.082 2.581c-18.695 15.656-42.433 24.278-66.841 24.278s-48.146-8.622-66.841-24.278l-3.082-2.581c-24.745-20.722-38.936-51.063-38.936-83.245 0-21.316 6.178-41.823 17.914-59.617h80.945v22.463c.001 5.523 4.478 10 10.001 10z"/><path d="m302.404 373.853c-5.523 0-10 4.478-10 10v20.397c0 5.522 4.477 10 10 10s10-4.478 10-10v-20.397c0-5.523-4.477-10-10-10z"/><path d="m292.6 340.779c.826 4.06 4.135 7.28 8.24 7.93 4.164.659 8.395-1.452 10.381-5.167 1.942-3.632 1.409-8.205-1.297-11.306-2.779-3.184-7.448-4.256-11.344-2.636-4.34 1.804-6.919 6.556-5.98 11.179z"/></g></g></svg>